<?xml version="1.0" encoding="utf-8"?>
<!-- Generator: Adobe Illustrator 25.0.1, SVG Export Plug-In . SVG Version: 6.00 Build 0)  -->
<svg version="1.0" id="Layer_1" xmlns="http://www.w3.org/2000/svg" xmlns:xlink="http://www.w3.org/1999/xlink" x="0px" y="0px"
	 viewBox="0 0 1978.7 1491" style="enable-background:new 0 0 1978.7 1491;" xml:space="preserve">
<style type="text/css">
	.st0{fill:#293854;}
	.st1{fill:#FF8F6E;}
	.st2{fill:#00DBCC;}
	.st3{fill:#409EFF;}
</style>
<g>
	<path class="st0" d="M1203.4,1239.8c14.4,0,26.9-5.2,37.4-15.5s15.8-22.9,15.8-37.7s-5.3-27.4-15.8-37.7
		c-10.5-10.3-23-15.5-37.4-15.5c-14.9,0-27.5,5.2-38.1,15.5c-10.5,10.3-15.8,22.9-15.8,37.7s5.3,27.4,15.8,37.7
		C1175.9,1234.7,1188.6,1239.8,1203.4,1239.8 M1203.4,1097.5c24.3,0,45.3,8.7,62.8,26s26.3,38.4,26.3,63.1v84.8
		c0,2.1-0.6,3.3-1.9,3.7c-1.2,0.4-2.5,0-3.7-1.2l-23.5-22.3c-7.8,7.4-16.9,13.3-27.2,17.6c-10.3,4.3-21.5,6.5-33.4,6.5
		c-24.3,0-45.3-8.7-62.8-26s-26.3-38.4-26.3-63.1c0-24.8,8.8-45.8,26.3-63.1c17.5-17.3,38.5-26,62.8-26H1203.4z M989.3,1239.8
		c14.9,0,27.4-5.2,37.7-15.5c10.3-10.3,15.5-22.9,15.5-37.7v-1.2c-0.4-14.4-5.8-26.7-16.1-36.8c-10.3-10.1-22.7-15.2-37.1-15.2
		c-14.9,0-27.4,5.2-37.7,15.5c-10.3,10.3-15.5,22.9-15.5,37.7s5.2,27.4,15.5,37.7C961.9,1234.7,974.4,1239.8,989.3,1239.8
		 M1078.4,1185.4v1.2v84.8c0,2.1-0.6,3.3-1.9,3.7c-1.2,0.4-2.5,0-3.7-1.2l-22.9-22.3c-7.8,7.4-17,13.3-27.5,17.6s-21.6,6.5-33.1,6.5
		c-24.8,0-45.8-8.7-63.1-26c-17.3-17.3-26-38.4-26-63.1c0-24.8,8.7-45.8,26-63.1c17.3-17.3,38.4-26,63.1-26c9.9,0,19.4,1.5,28.5,4.6
		c9.1,3.1,17.3,7.5,24.8,13.3v-47.7c0-1.7,0.6-3.1,1.9-4.3c1.2-1.2,2.7-1.9,4.3-1.9h24.1c1.2,0,2.5,0.6,3.7,1.9
		c1.2,1.2,1.9,2.7,1.9,4.3L1078.4,1185.4L1078.4,1185.4z M775.2,1239.8c14.9,0,27.5-5.2,38.1-15.5c10.5-10.3,15.8-22.9,15.8-37.7
		s-5.3-27.4-15.8-37.7c-10.5-10.3-23.2-15.5-38.1-15.5c-14.4,0-26.9,5.2-37.4,15.5s-15.8,22.9-15.8,37.7s5.3,27.4,15.8,37.7
		C748.3,1234.7,760.7,1239.8,775.2,1239.8 M775.2,1097.5c24.8,0,45.8,8.7,63.1,26s26,38.4,26,63.1v84.8c0,2.1-0.5,3.3-1.5,3.7
		s-2.2,0-3.4-1.2l-23.5-22.3c-9.1,7.5-16.9,13.3-27.2,17.6c-10.3,4.3-21.5,6.5-33.4,6.5c-24.3,0-45.3-8.7-62.8-26
		s-26.3-38.4-26.3-63.1c0-24.8,8.8-45.8,26.3-63.1C729.9,1106.2,750.8,1097.5,775.2,1097.5"/>
	<path class="st1" d="M712.8,665.3c0,14.6-11.8,26.4-26.4,26.4S660,679.9,660,665.3c0-14.6,11.8-26.4,26.4-26.4
		S712.8,650.8,712.8,665.3"/>
	<path class="st0" d="M899.7,638.9c-15.2,0-27.4,11.8-27.4,26.4c0,14.6,12.3,26.4,27.4,26.4h180.7c15.1,0,27.4-11.8,27.4-26.4
		c0-14.6-12.3-26.4-27.4-26.4H899.7z"/>
	<path class="st2" d="M819.3,665.3c0,14.6-12.1,26.4-27,26.4c-14.9,0-27-11.8-27-26.4c0-14.6,12.1-26.4,27-26.4
		C807.2,638.9,819.3,650.8,819.3,665.3"/>
	<path class="st2" d="M1160.6,665.3c0,14.6,11.8,26.4,26.3,26.4c5.8,0,11.1-1.9,15.5-5.1c25.6-18.6,48.8-18.6,74.4,0
		c4.3,3.2,9.7,5,15.5,5c14.5,0,26.3-11.8,26.3-26.4c0-14.6-11.8-26.4-26.3-26.4c-5.8,0-11.1,1.8-15.5,5c-25.6,18.6-48.8,18.7-74.4,0
		c-4.4-3.2-9.7-5.1-15.5-5.1C1172.4,638.9,1160.6,650.8,1160.6,665.3"/>
	<path class="st3" d="M962.5,744.4c-14.9,0-27,11.8-27,26.4c0,14.6,12.1,26.4,27,26.4H1231c14.9,0,27-11.8,27-26.4
		c0-14.6-12.1-26.4-27-26.4H962.5z"/>
	<path class="st0" d="M720.6,770.8c0,14.6,12.1,26.4,27,26.4c6,0,11.4-1.9,15.9-5.1c26.2-18.6,50.1-18.6,76.3,0
		c4.4,3.2,9.9,5,15.9,5c14.9,0,27-11.8,27-26.4c0-14.6-12.1-26.4-27-26.4c-6,0-11.4,1.8-15.9,5c-26.2,18.6-50.1,18.7-76.3,0
		c-4.5-3.2-9.9-5.1-15.9-5.1C732.7,744.4,720.6,756.2,720.6,770.8"/>
	<path class="st1" d="M1108.3,558.7c0,14.6-11.8,26.4-26.4,26.4s-26.4-11.8-26.4-26.4c0-14.6,11.8-26.4,26.4-26.4
		C1096.5,532.3,1108.3,544.2,1108.3,558.7"/>
	<path class="st3" d="M1345.2,558.7c0-0.1,0-0.3,0-0.4c-0.2-14.4-11.9-25.9-26.4-25.9h-131.4c-14.4,0-26.2,11.6-26.4,26
		c0,0.1,0,0.3,0,0.4l0,0l0,0c0,14.6,11.8,26.4,26.4,26.4c0.1,0,131.3,0,131.4,0C1333.4,585.1,1345.2,573.3,1345.2,558.7
		L1345.2,558.7L1345.2,558.7z"/>
	<path class="st3" d="M975.7,532.3c0,0-315.8,0-315.9,0c-14.4,0-26.1,11.6-26.4,25.9c0,0.1,0,0.3,0,0.4l0,0l0,0
		c0,14.6,11.8,26.4,26.4,26.4h315.9c14.9,0,27-11.8,27-26.4C1002.7,544.2,990.7,532.3,975.7,532.3"/>
	<path class="st3" d="M975.1,479c14.9,0,27-11.8,27-26.4c0-5.8-1.9-11.2-5.2-15.5c-19.1-25.6-19-48.9,0-74.5
		c3.3-4.3,5.2-9.7,5.2-15.5c0-14.6-12.1-26.4-27-26.4c-14.9,0-27,11.8-27,26.4c0,5.8,1.9,11.2,5.2,15.5c19.1,25.6,19.1,48.9,0,74.5
		c-3.3,4.4-5.2,9.7-5.2,15.5C948.1,467.2,960.2,479,975.1,479"/>
	<path class="st0" d="M791.8,479.6c-14.9,0-27-11.8-27-26.4s12.1-26.4,27-26.4h76.7c14.9,0,27,11.8,27,26.4s-12.1,26.4-27,26.4
		H791.8z"/>
	<path class="st0" d="M712.6,453.2c0,14.6-11.8,26.4-26.4,26.4s-26.4-11.8-26.4-26.4s11.8-26.4,26.4-26.4
		C700.8,426.8,712.6,438.6,712.6,453.2"/>
	<path class="st0" d="M1119.8,320.7c14.9,0,27,11.8,27,26.4s-12.1,26.4-27,26.4h-37.9c-14.9,0-27-11.8-27-26.4s12.1-26.4,27-26.4
		H1119.8z"/>
	<path class="st2" d="M868.5,373.8c14.9,0,27-11.8,27-26.4s-12.1-26.4-27-26.4h-121c-14.9,0-27,11.8-27,26.4s12.1,26.4,27,26.4
		H868.5z"/>
	<path class="st2" d="M1318.8,453.2c0-0.1,0-0.1,0-0.2c-0.1-14.5-11.9-26.2-26.4-26.2h-210.5c-14.9,0-27,11.8-27,26.4
		s12.1,26.4,27,26.4c0,0,210.4,0,210.5,0C1307,479.6,1318.8,467.8,1318.8,453.2L1318.8,453.2z"/>
	<path class="st1" d="M1252.4,347.1c0,14.6-11.8,26.4-26.4,26.4s-26.4-11.8-26.4-26.4s11.8-26.4,26.4-26.4
		C1240.6,320.7,1252.4,332.5,1252.4,347.1"/>
	<path class="st3" d="M969.9,268c-14.9,0-27-11.8-27-26.4s12.1-26.4,27-26.4h143.9c14.9,0,27,11.8,27,26.4c0,14.6-12.1,26.4-27,26.4
		H969.9z"/>
	<path class="st0" d="M890.6,241.7c0,14.6-11.8,26.4-26.4,26.4c-14.6,0-26.4-11.8-26.4-26.4c0-14.6,11.8-26.4,26.4-26.4
		C878.8,215.3,890.6,227.1,890.6,241.7"/>
	<path class="st3" d="M1008.5,850.7c14.9,0,27,11.8,27,26.4c0,14.6-12.1,26.4-27,26.4H864.6c-14.9,0-27-11.8-27-26.4
		c0-14.6,12.1-26.4,27-26.4H1008.5z"/>
	<path class="st0" d="M1141,876.7c0,14.6-11.8,26.4-26.4,26.4c-14.6,0-26.4-11.8-26.4-26.4s11.8-26.4,26.4-26.4
		C1129.2,850.3,1141,862.1,1141,876.7"/>
</g>
</svg>
